Coordinates
version=1
nRows=19
nColumns=36
inDegrees=yes

Units are S.I. units (second, meters, Newtons, ...)
If the header above contains a line with 'inDegrees', this indicates whether rotational values are in degrees (yes) or radians (no).

endheader
time	pelvis_tilt	pelvis_list	pelvis_rotation	pelvis_tx	pelvis_ty	pelvis_tz	hip_flexion_r	hip_adduction_r	hip_rotation_r	knee_angle_r	knee_angle_r_beta	ankle_angle_r	subtalar_angle_r	mtp_angle_r	hip_flexion_l	hip_adduction_l	hip_rotation_l	knee_angle_l	knee_angle_l_beta	ankle_angle_l	subtalar_angle_l	mtp_angle_l	lumbar_extension	lumbar_bending	lumbar_rotation	arm_flex_r	arm_add_r	arm_rot_r	elbow_flex_r	pro_sup_r	arm_flex_l	arm_add_l	arm_rot_l	elbow_flex_l	pro_sup_l
      1.01000000	     -3.65683299	     -1.10962613	      2.73679119	      1.14207203	      0.94551895	     -0.18920614	     28.71717803	      1.66357675	     -4.02097939	      6.30768092	      0.11008980	      0.65745623	     -4.25354078	     -7.35535008	     -8.54497243	      3.26018023	     -8.78241490	      1.97535602	      0.03447647	     18.58645608	      3.72312424	     -7.35535008	     -2.53274574	     -2.69471219	     -9.71886335	      0.64134763	     -2.53158101	    -13.20847637	     29.48733956	    103.17759777	     24.53455931	    -12.05286864	     -4.72735202	     45.58924797	    103.58484730
      1.02000000	     -3.98983032	     -0.92352024	      2.47908514	      1.15306944	      0.94277841	     -0.18839454	     28.68152087	      1.69417469	     -3.51114758	      3.43524323	      0.05995631	      0.99169728	     -3.30799769	     -7.35674924	     -8.89312686	      3.42797473	     -8.73164650	      2.16408754	      0.03777045	     18.88933383	      3.58004777	     -7.35674924	     -2.19530844	     -2.89808166	     -9.57627037	      0.47047114	     -2.62631570	    -13.48973598	     29.05237891	    103.12921286	     25.54550912	    -12.17581152	     -4.43411898	     46.52790395	    103.73729469
      1.03000000	     -4.14665168	     -0.72256282	      2.19522589	      1.16411765	      0.94030423	     -0.18750925	     28.69068582	      1.69150937	     -3.37132852	      1.54534210	      0.02697131	      1.44220674	     -2.43429273	     -7.35834672	     -9.42168563	      3.61176692	     -8.80419880	      2.34859822	      0.04099077	     19.24594721	      3.30928378	     -7.35834672	     -2.10875307	     -3.10426235	     -9.43519484	      0.43707541	     -2.67466945	    -13.85621421	     28.59042308	    103.06836876	     26.51746784	    -12.33813188	     -4.08530993	     47.51233325	    103.91771642
      1.04000000	     -4.32278426	     -0.55465330	      1.96009180	      1.17527253	      0.93789811	     -0.18667247	     29.05148742	      1.64107576	     -4.20727877	      0.89859958	      0.01568352	      2.88711887	     -0.39505118	     -7.36280353	     -9.85945585	      3.74874865	     -8.78917508	      2.66466494	      0.04650718	     19.51383764	      2.88560719	     -7.36280353	     -2.01970967	     -3.24641601	     -9.34413907	      0.45998606	     -2.64333919	    -14.64785394	     28.11454817	    102.97255212	     27.34570052	    -12.56076183	     -3.56382061	     48.55537567	    104.23312165
      1.05000000	     -4.50787910	     -0.49413237	      1.79477573	      1.18668071	      0.93566490	     -0.18585087	     29.37055396	      1.68948329	     -4.88180685	      0.72649556	      0.01267974	      3.85112536	      0.78643752	     -7.36661449	    -10.20763823	      3.73284331	     -8.79542425	      3.14163831	      0.05483193	     19.70255164	      2.47353229	     -7.36661449	     -1.87465324	     -3.27520933	     -9.25835192	      0.38731472	     -2.70817738	    -15.10843126	     27.72520268	    102.92728704	     28.11423114	    -12.54497551	     -3.42871341	     49.41658559	    104.45431379
      1.06000000	     -4.65562810	     -0.54126973	      1.70633645	      1.19841290	      0.93369390	     -0.18505983	     29.47715360	      1.83959779	     -5.00012987	      0.75122060	      0.01311127	      4.07124180	      0.80349896	     -7.36732850	    -10.59488828	      3.57068067	     -8.73147626	      3.63298680	      0.06340758	     19.67557379	      2.35193390	     -7.36732850	     -1.77532619	     -3.15048194	     -9.14419746	      0.24938887	     -2.85435359	    -15.25614196	     27.37396469	    102.89667768	     28.84147508	    -12.38599220	     -3.34157169	     50.15488641	    104.54925559
      1.07000000	     -4.73021632	     -0.70635601	      1.66199672	      1.21042030	      0.93203557	     -0.18417856	     29.40082536	      2.10784458	     -4.93113920	      1.00358834	      0.01751592	      4.17207025	      0.68947731	     -7.36813226	    -10.98566387	      3.23763440	     -8.76050592	      4.29107308	      0.07489335	     19.68332662	      2.11084678	     -7.36813226	     -1.75028347	     -2.91922705	     -9.14801517	      0.20769527	     -2.98337054	    -15.48492986	     26.95186447	    102.84941214	     29.38404156	    -12.26112980	     -3.20632107	     50.96342607	    104.65182045
      1.08000000	     -4.77306715	     -0.93865537	      1.68731322	      1.22271820	      0.93063798	     -0.18322603	     29.22262961	      2.42960299	     -4.60551419	      1.48702925	      0.02595356	      3.73414264	     -0.16403836	     -7.37073112	    -11.32090426	      2.77950913	     -9.02559060	      5.12217368	      0.08939880	     19.71353364	      1.79614841	     -7.37073112	     -1.72374735	     -2.60350078	     -9.39415116	      0.33636097	     -2.97795876	    -16.01692699	     26.38398477	    102.75416230	     29.51053423	    -12.31568183	     -3.21989934	     52.13601963	    104.78440731
      1.09000000	     -4.87702910	     -1.24214999	      1.69926752	      1.23521400	      0.92941497	     -0.18217001	     29.07391090	      2.85167731	     -3.72543077	      2.12109866	      0.03702016	      2.44673018	     -2.05882748	     -7.37570211	    -11.55652065	      2.22352481	     -9.25423068	      6.03151269	      0.10526976	     19.53939299	      1.81065184	     -7.37570211	     -1.61341157	     -2.18329457	     -9.56614556	      0.38369612	     -3.00969246	    -16.52564849	     25.99377807	    102.66655894	     29.48042919	    -12.14059519	     -3.61016695	     53.33747223	    104.86330546
      1.10000000	     -4.83484379	     -1.62454568	      1.72564172	      1.24802617	      0.92867472	     -0.18113085	     28.81555184	      3.30638955	     -3.37985069	      3.01720570	      0.05266017	      1.94267119	     -2.22404551	     -7.37621508	    -12.01835461	      1.59883589	     -9.13936691	      6.82772282	      0.11916624	     19.20322177	      1.76117280	     -7.37621508	     -1.62446054	     -1.65571002	     -9.52904225	      0.26649247	     -3.16945711	    -16.62061737	     25.75308917	    102.63991912	     29.65474722	    -11.86317661	     -3.51743001	     53.82800268	    104.91406494
      1.11000000	     -4.72656556	     -2.10694276	      1.78884410	      1.26100809	      0.92831414	     -0.18001335	     28.49743673	      3.85049439	     -3.23885347	      3.95733822	      0.06906858	      1.06910498	     -2.64345707	     -7.37679380	    -12.39949847	      0.81061947	     -9.25069232	      7.91171879	      0.13808554	     18.69554321	      1.57938176	     -7.37679380	     -1.74623184	     -1.01044136	     -9.46213643	      0.20039870	     -3.32634606	    -16.78113111	     25.44707076	    102.59750403	     29.67342512	    -11.54736037	     -3.45360177	     54.55052261	    104.98190998
      1.12000000	     -4.67859888	     -2.68917007	      1.94164404	      1.27440628	      0.92822956	     -0.17873803	     27.96973978	      4.55386406	     -2.62978077	      4.26815377	      0.07449334	     -2.24612306	     -5.96867937	     -7.38128542	    -12.51838859	     -0.20142616	    -10.01789122	      9.33280738	      0.16288822	     18.00690316	      1.40741831	     -7.38128542	     -1.73437731	     -0.27227251	    -10.07241369	      0.45412911	     -3.25185333	    -17.38850629	     25.02408463	    102.44603461	     28.66354635	    -11.43508705	     -4.60530742	     56.58799688	    105.04815190
      1.13000000	     -4.46335602	     -3.21356710	      2.03149440	      1.28788323	      0.92857935	     -0.17747604	     27.45263723	      5.14479864	     -2.52953182	      5.12808919	      0.08950204	     -2.85300629	     -6.28488272	     -7.38188969	    -12.91470518	     -1.06316750	     -9.92802742	     10.59501784	      0.18491795	     17.31373599	      1.26190050	     -7.38188969	     -1.90552451	      0.40698536	     -9.88164706	      0.29993698	     -3.39952284	    -17.45142082	     24.80277845	    102.41861462	     28.48633949	    -11.00769087	     -4.52777326	     57.13130408	    105.10707476
      1.14000000	     -4.22400755	     -3.83866890	      2.23334293	      1.30165855	      0.92924938	     -0.17611355	     26.74435087	      5.87731025	     -2.50477337	      5.54955362	      0.09685798	     -5.36265889	     -8.89101381	     -7.38733978	    -13.06690768	     -2.15801064	    -10.32925127	     12.32227989	      0.21506436	     16.08165705	      0.51522402	     -7.38733978	     -2.08587837	      1.19051522	    -10.33930939	      0.46967249	     -3.39859091	    -17.68197056	     24.53678884	    102.29976679	     27.37520029	    -10.70315451	     -5.63709145	     58.95665823	    105.23943883
      1.15000000	     -3.94111097	     -4.39636642	      2.40633795	      1.31554254	      0.93016073	     -0.17475812	     26.12120416	      6.50125343	     -3.02726387	      6.35653885	      0.11094253	     -6.19261905	     -9.60884674	     -7.38929245	    -13.18863325	     -3.17644803	    -10.48067891	     14.16690546	      0.24725915	     14.83495264	     -0.04944518	     -7.38929245	     -2.26560563	      1.90468112	    -10.32929644	      0.38362468	     -3.48686304	    -17.75271395	     24.40592557	    102.25140407	     26.66069142	    -10.34524145	     -5.73691290	     59.82676584	    105.34975530
      1.16000000	     -3.59706162	     -4.87670554	      2.54834711	      1.32934608	      0.93130198	     -0.17315709	     25.43022921	      7.10642180	     -3.19233247	      7.24657758	      0.12647664	     -6.51430484	    -10.06453000	     -7.38999830	    -13.27628087	     -4.10517734	    -10.18770765	     16.16499446	      0.28213238	     13.61902593	     -0.36466423	     -7.38999830	     -2.55541094	      2.46984969	    -10.09693878	      0.26335509	     -3.51047157	    -17.81597467	     24.25716840	    102.22045523	     26.05979154	     -9.88808355	     -5.77199924	     60.55158966	    105.43316515
      1.17000000	     -3.50493795	     -5.29587259	      2.73944610	      1.34326466	      0.93231983	     -0.17160487	     24.94244108	      7.65494329	     -3.51938762	      7.99406227	      0.13952271	     -7.49368036	    -11.79151862	     -7.39464189	    -12.79042810	     -4.97678872	     -9.80810253	     18.55864248	      0.32390942	     11.37502991	     -2.37014478	     -7.39464189	     -2.48649729	      3.00117711	    -10.60868789	      0.44344211	     -3.39795940	    -17.97258077	     24.12604314	    102.11048884	     24.40211011	     -9.62746055	     -6.96313894	     62.40144903	    105.65855439
      1.18000000	     -3.08130960	     -5.64149077	      2.82251557	      1.35688149	      0.93385174	     -0.16984913	     24.10184575	      8.21077494	     -3.51333714	      8.86138105	      0.15466028	     -7.36150027	    -12.18231973	     -7.39521521	    -12.56450258	     -5.80525825	     -9.42471895	     21.12823440	      0.36875726	      9.87170231	     -2.60125091	     -7.39521521	     -2.90724834	      3.40721636	    -10.17040012	      0.37544906	     -3.38012253	    -17.96198434	     24.04261920	    102.09582874	     23.72320669	     -9.15854297	     -6.83257084	     62.92793290	    105.74127504
      1.19000000	     -3.19800006	     -5.91283411	      2.96221581	      1.37048710	      0.93474704	     -0.16805357	     23.84011976	      8.64729456	     -3.79330748	      9.70008174	      0.16929836	     -7.26514468	    -13.41310945	     -7.39906169	    -11.34477389	     -6.57959144	     -8.94824957	     24.23977784	      0.42306393	      6.85192692	     -5.00199180	     -7.39906169	     -2.57594323	      3.69098519	    -10.42768465	      0.41461202	     -3.22006072	    -18.00539929	     24.02720025	    102.02611075	     22.05928486	     -8.95119593	     -7.47876819	     64.34838708	    105.98355107
